<svg xmlns="http://www.w3.org/2000/svg" version="1.1" xmlns:xlink="http://www.w3.org/1999/xlink" xmlns:svgjs="http://svgjs.dev/svgjs" width="1000" height="174" viewBox="0 0 1000 174"><g transform="matrix(1,0,0,1,-0.60603079850722,-0.3186599800724963)"><svg viewBox="0 0 396 69" data-background-color="#ffffff" preserveAspectRatio="xMidYMid meet" height="174" width="1000" xmlns="http://www.w3.org/2000/svg" xmlns:xlink="http://www.w3.org/1999/xlink"><g id="tight-bounds" transform="matrix(1,0,0,1,0.2399881962088557,0.12636621246363688)"><svg viewBox="0 0 395.52 68.74726862302482" height="68.74726862302482" width="395.52"><g><svg viewBox="0 0 395.52 68.74726862302482" height="68.74726862302482" width="395.52"><g><svg viewBox="0 0 395.52 68.74726862302482" height="68.74726862302482" width="395.52"><g id="textblocktransform"><svg viewBox="0 0 395.52 68.74726862302482" height="68.74726862302482" width="395.52" id="textblock"><g><svg viewBox="0 0 395.52 68.74726862302482" height="68.74726862302482" width="395.52"><g transform="matrix(1,0,0,1,0,0)"><svg width="395.52" viewBox="2.3499999046325684 -37.54999923706055 287.91998291015625 50.04999923706055" height="68.74726862302482" data-palette-color="#97978d"><path d="M13.8-1.85L13.8-1.85Q14.5-2.8 14.78-3.8 15.05-4.8 15.05-5.5L15.05-5.5Q15.05-7.05 14.5-8.08 13.95-9.1 13.1-9.8L13.1-9.8Q12.25-10.45 11.25-10.9 10.25-11.35 9.4-11.7L9.4-11.7Q8.5-12.05 7.85-12.43 7.2-12.8 7.1-13.4L7.1-13.4Q7.05-13.8 7.15-14.13 7.25-14.45 7.5-14.7L7.5-14.7Q7.75-14.9 8.15-15.03 8.55-15.15 9.1-15.15L9.1-15.15Q9.5-15.15 9.85-15.08 10.2-15 10.6-14.9L10.6-14.9 10.6-12.75 14.3-12.75 14.3-17.1Q13.75-17.7 13.03-18.1 12.3-18.5 11.55-18.75L11.55-18.75Q10.8-19 10.08-19.1 9.35-19.2 8.85-19.2L8.85-19.2Q8-19.2 6.95-18.9 5.9-18.6 5-17.9L5-17.9Q4.1-17.25 3.5-16.2 2.9-15.15 2.9-13.6L2.9-13.6Q2.9-11.85 3.5-10.8 4.1-9.75 5-9.2L5-9.2Q5.95-8.6 7-8.28 8.05-7.95 8.9-7.6L8.9-7.6Q9.8-7.3 10.33-6.83 10.85-6.35 10.85-5.45L10.85-5.45Q10.85-4.95 10.68-4.63 10.5-4.3 10.25-4.1L10.25-4.1Q9.9-3.85 9.47-3.75 9.05-3.65 8.65-3.65L8.65-3.65Q7.8-3.65 7.23-3.73 6.65-3.8 6.05-4.05L6.05-4.05 6.05-6 2.35-6 2.35-1.65Q3.35-0.55 5.05-0.08 6.75 0.4 8.6 0.4L8.6 0.4Q10.6 0.4 11.85-0.25 13.1-0.9 13.8-1.85ZM34.75 0L42.2 0 42.2-3.95 38.4-3.95 38.4-18.75 34.95-18.75Q34.95-18.15 34.87-17.53 34.8-16.9 34.75-16.4L34.75-16.4Q34.35-17.25 32.75-18.23 31.15-19.2 28.4-19.2L28.4-19.2Q26.3-19.2 24.45-18.4 22.6-17.6 21.25-16.25L21.25-16.25Q19.9-14.9 19.12-13.1 18.35-11.3 18.35-9.35L18.35-9.35Q18.35-7.35 19.12-5.58 19.9-3.8 21.25-2.45L21.25-2.45Q22.6-1.1 24.45-0.33 26.3 0.45 28.4 0.45L28.4 0.45Q29.85 0.45 31 0.13 32.15-0.2 33-0.65L33-0.65Q33.8-1.05 34.25-1.45 34.7-1.85 34.75-2L34.75-2Q34.75-1.65 34.75-1.5 34.75-1.35 34.75-1L34.75-1 34.75 0ZM28.4-15.15L28.4-15.15Q29.65-15.15 30.67-14.75 31.7-14.35 32.5-13.65L32.5-13.65Q33.3-12.9 33.77-11.8 34.25-10.7 34.25-9.4L34.25-9.4Q34.25-8.1 33.77-7 33.3-5.9 32.45-5.1L32.45-5.1Q31.7-4.4 30.67-4 29.65-3.6 28.4-3.6L28.4-3.6Q27.3-3.6 26.35-3.93 25.4-4.25 24.7-4.8L24.7-4.8Q23.7-5.6 23.12-6.8 22.55-8 22.55-9.4L22.55-9.4Q22.55-10.6 22.92-11.6 23.3-12.6 24-13.35L24-13.35Q24.75-14.2 25.9-14.68 27.05-15.15 28.4-15.15ZM57.8 12.5L68.9 12.5 68.9 8.55 65.75 8.55 65.75-14.8 69.75-14.8 69.75-18.75 62.3-18.75Q62.25-18.05 62.2-17.48 62.15-16.9 62.1-16.4L62.1-16.4Q61.4-17.35 59.9-18.28 58.4-19.2 55.75-19.2L55.75-19.2Q53.65-19.2 51.8-18.43 49.95-17.65 48.6-16.3L48.6-16.3Q47.25-14.95 46.47-13.18 45.7-11.4 45.7-9.4L45.7-9.4Q45.7-7.4 46.47-5.6 47.25-3.8 48.6-2.45L48.6-2.45Q49.95-1.1 51.8-0.33 53.65 0.45 55.75 0.45L55.75 0.45Q57.1 0.45 58.2 0.18 59.3-0.1 60.1-0.5L60.1-0.5Q60.9-0.9 61.25-1.18 61.6-1.45 61.75-1.65L61.75-1.65Q61.65-1.35 61.62-1.1 61.6-0.85 61.6-0.6L61.6-0.6 61.6 8.55 57.8 8.55 57.8 12.5ZM55.75-15.15L55.75-15.15Q57-15.15 58.02-14.75 59.05-14.35 59.85-13.65L59.85-13.65Q60.65-12.9 61.12-11.8 61.6-10.7 61.6-9.4L61.6-9.4Q61.6-8.15 61.17-7.1 60.75-6.05 59.95-5.25L59.95-5.25Q59.2-4.5 58.12-4.05 57.05-3.6 55.75-3.6L55.75-3.6Q54.6-3.6 53.62-3.95 52.65-4.3 51.9-4.9L51.9-4.9Q50.95-5.7 50.42-6.85 49.9-8 49.9-9.4L49.9-9.4Q49.9-10.65 50.32-11.73 50.75-12.8 51.55-13.55L51.55-13.55Q52.3-14.3 53.37-14.73 54.45-15.15 55.75-15.15ZM73.24 0L84.34 0 84.34-3.95 81.19-3.95 81.19-37.5 73.74-37.5 73.74-33.55 77.04-33.55 77.04-3.95 73.24-3.95 73.24 0ZM104.24 0L111.69 0 111.69-3.95 107.89-3.95 107.89-18.75 104.44-18.75Q104.44-18.15 104.37-17.53 104.29-16.9 104.24-16.4L104.24-16.4Q103.84-17.25 102.24-18.23 100.64-19.2 97.89-19.2L97.89-19.2Q95.79-19.2 93.94-18.4 92.09-17.6 90.74-16.25L90.74-16.25Q89.39-14.9 88.62-13.1 87.84-11.3 87.84-9.35L87.84-9.35Q87.84-7.35 88.62-5.58 89.39-3.8 90.74-2.45L90.74-2.45Q92.09-1.1 93.94-0.33 95.79 0.45 97.89 0.45L97.89 0.45Q99.34 0.45 100.49 0.13 101.64-0.2 102.49-0.65L102.49-0.65Q103.29-1.05 103.74-1.45 104.19-1.85 104.24-2L104.24-2Q104.24-1.65 104.24-1.5 104.24-1.35 104.24-1L104.24-1 104.24 0ZM97.89-15.15L97.89-15.15Q99.14-15.15 100.17-14.75 101.19-14.35 101.99-13.65L101.99-13.65Q102.79-12.9 103.27-11.8 103.74-10.7 103.74-9.4L103.74-9.4Q103.74-8.1 103.27-7 102.79-5.9 101.94-5.1L101.94-5.1Q101.19-4.4 100.17-4 99.14-3.6 97.89-3.6L97.89-3.6Q96.79-3.6 95.84-3.93 94.89-4.25 94.19-4.8L94.19-4.8Q93.19-5.6 92.62-6.8 92.04-8 92.04-9.4L92.04-9.4Q92.04-10.6 92.42-11.6 92.79-12.6 93.49-13.35L93.49-13.35Q94.24-14.2 95.39-14.68 96.54-15.15 97.89-15.15ZM115.19 0L126.29 0 126.29-3.95 122.84-3.95 122.84-18.75 115.19-18.75 115.19-14.8 118.69-14.8 118.69-3.95 115.19-3.95 115.19 0ZM123.39-26L123.39-26Q123.39-27.15 122.59-27.9 121.79-28.65 120.84-28.65L120.84-28.65Q119.84-28.65 119.04-27.9 118.24-27.15 118.24-26L118.24-26Q118.24-24.85 119.04-24.13 119.84-23.4 120.84-23.4L120.84-23.4Q121.79-23.4 122.59-24.13 123.39-24.85 123.39-26ZM129.78 0L140.88 0 140.88-3.95 137.73-3.95 137.73-9.1Q137.73-10.4 138.28-11.5 138.84-12.6 139.73-13.4L139.73-13.4Q140.63-14.2 141.81-14.65 142.98-15.1 144.28-15.1L144.28-15.1Q146.19-15 147.06-14.03 147.94-13.05 148.03-11.7L148.03-11.7 148.03-3.95 144.19-3.95 144.19 0 155.28 0 155.28-3.95 152.19-3.95 152.19-13.6Q152.09-16.1 150.38-17.65 148.69-19.2 145.73-19.2L145.73-19.2Q143.03-19.2 140.81-17.78 138.59-16.35 137.59-13.95L137.59-13.95Q137.48-15.15 137.41-16.13 137.34-17.1 137.23-18.3L137.23-18.3 137.23-18.75 130.28-18.75 130.28-14.8 133.59-14.8 133.59-3.95 129.78-3.95 129.78 0ZM173.78 0L184.88 0 184.88-3.95 182.03-3.95Q183.43-7.25 184.13-8.9 184.83-10.55 186.23-13.85L186.23-13.85 197.23-13.85Q198.28-11.35 199.31-8.9 200.33-6.45 201.38-3.95L201.38-3.95 198.58-3.95 198.58 0 209.68 0 209.68-3.95 205.58-3.95Q202.13-12.2 198.66-20.28 195.18-28.35 191.73-36.6L191.73-36.6Q188.28-28.35 184.81-20.28 181.33-12.2 177.88-3.95L177.88-3.95 173.78-3.95 173.78 0ZM191.18-25.75L191.18-25.75Q191.23-25.9 191.36-26.25 191.48-26.6 191.68-27.4L191.68-27.4 192.18-25.75 195.53-17.8 187.93-17.8Q188.63-19.55 189.46-21.68 190.28-23.8 191.18-25.75ZM213.18 0L224.28 0 224.28-3.95 220.33-3.95 220.33-14.7 226.23-14.7 226.23-18.75 220.33-18.75 220.33-25.7Q220.33-27.6 220.93-29.05 221.53-30.5 222.63-31.5L222.63-31.5Q223.68-32.45 225.1-32.98 226.53-33.5 228.23-33.6L228.23-33.6 228.23-37.55Q225.68-37.45 223.45-36.68 221.23-35.9 219.63-34.4L219.63-34.4Q218.03-32.95 217.1-30.8 216.18-28.65 216.18-25.85L216.18-25.85 216.18-18.75 213.18-18.75 213.18-14.7 216.23-14.7 216.23-3.95 213.18-3.95 213.18 0ZM229.98 0L241.08 0 241.08-3.95 237.93-3.95 237.93-9.1Q237.93-10.65 238.6-11.9 239.28-13.15 240.48-13.95L240.48-13.95Q241.28-14.5 242.35-14.8 243.43-15.1 244.68-15.1L244.68-15.1 244.98-19.2Q244.23-19.2 243.25-18.85 242.28-18.5 241.23-17.8L241.23-17.8Q240.23-17.15 239.3-16.18 238.38-15.2 237.78-13.95L237.78-13.95Q237.68-15.15 237.7-15.05 237.73-14.95 237.63-16.15L237.63-16.15 237.43-18.75 230.48-18.75 230.48-14.8 233.78-14.8 233.78-3.95 229.98-3.95 229.98 0ZM265.62-2.45L265.62-2.45Q266.97-3.8 267.75-5.58 268.52-7.35 268.52-9.4L268.52-9.4Q268.52-11.4 267.75-13.2 266.97-15 265.62-16.35L265.62-16.35Q264.27-17.65 262.42-18.43 260.57-19.2 258.47-19.2L258.47-19.2Q256.37-19.2 254.55-18.43 252.72-17.65 251.37-16.35L251.37-16.35Q250.02-15 249.25-13.2 248.47-11.4 248.47-9.4L248.47-9.4Q248.47-7.35 249.25-5.58 250.02-3.8 251.37-2.45L251.37-2.45Q252.72-1.1 254.55-0.33 256.37 0.45 258.47 0.45L258.47 0.45Q260.57 0.45 262.42-0.33 264.27-1.1 265.62-2.45ZM254.32-5.3L254.32-5.3Q253.52-6.05 253.07-7.1 252.62-8.15 252.62-9.35L252.62-9.35Q252.62-10.55 253.07-11.6 253.52-12.65 254.32-13.45L254.32-13.45Q255.07-14.25 256.12-14.7 257.17-15.15 258.37-15.15L258.37-15.15Q259.57-15.15 260.62-14.7 261.67-14.25 262.47-13.45L262.47-13.45Q263.27-12.65 263.72-11.6 264.17-10.55 264.17-9.35L264.17-9.35Q264.17-8.15 263.72-7.1 263.27-6.05 262.47-5.3L262.47-5.3Q261.67-4.5 260.62-4.05 259.57-3.6 258.37-3.6L258.37-3.6Q257.17-3.6 256.12-4.05 255.07-4.5 254.32-5.3ZM272.02 0L290.27 0 290.27-6.9 286.57-6.9 286.57-4.05 277.87-4.05Q280.92-6.95 283.4-9.33 285.87-11.7 289.12-14.7L289.12-14.7 289.12-18.75 276.32-18.75 276.32-20.5 272.62-20.5 272.62-14.8 283.27-14.8Q280.02-11.75 277.57-9.38 275.12-7 272.02-4.05L272.02-4.05 272.02 0Z" opacity="1" transform="matrix(1,0,0,1,0,0)" fill="#97978d" class="wordmark-text-0" data-fill-palette-color="primary" id="text-0"></path></svg></g></svg></g></svg></g></svg></g></svg></g><defs></defs></svg><rect width="395.52" height="68.74726862302482" fill="none" stroke="none" visibility="hidden"></rect></g></svg></g></svg>